<?xml version="1.0" encoding="UTF-8" standalone="no"?>
<svg
   viewBox="0 0 32 32"
   version="1.1"
   id="svg1"
   sodipodi:docname="teamspeak.svg"
   width="32"
   height="32"
   inkscape:version="1.3 (0e150ed6c4, 2023-07-21)"
   xmlns:inkscape="http://www.inkscape.org/namespaces/inkscape"
   xmlns:sodipodi="http://sodipodi.sourceforge.net/DTD/sodipodi-0.dtd"
   xmlns="http://www.w3.org/2000/svg"
   xmlns:svg="http://www.w3.org/2000/svg">
  <defs
     id="defs1" />
  <sodipodi:namedview
     id="namedview1"
     pagecolor="#ffffff"
     bordercolor="#000000"
     borderopacity="0.25"
     inkscape:showpageshadow="2"
     inkscape:pageopacity="0.0"
     inkscape:pagecheckerboard="0"
     inkscape:deskcolor="#d1d1d1"
     inkscape:zoom="21.279495"
     inkscape:cx="34.211339"
     inkscape:cy="35.856115"
     inkscape:window-width="3836"
     inkscape:window-height="2128"
     inkscape:window-x="0"
     inkscape:window-y="28"
     inkscape:window-maximized="1"
     inkscape:current-layer="svg1" />
  <!--! Font Awesome Pro 6.4.2 by @fontawesome - https://fontawesome.com License - https://fontawesome.com/license (Commercial License) Copyright 2023 Fonticons, Inc. -->
  <path
     d="M 8.092791,2.3231797 C 6.187909,4.7040074 4.774037,7.4847641 3.957659,10.477984 c 0,0.0125 -0.0059,0.01875 -0.0059,0.03124 C 1.62684,11.521548 0,13.933621 0,16.745622 c 0,3.724339 2.863239,6.748803 6.389045,6.748803 3.525807,0 6.389045,-3.024464 6.389045,-6.748803 0,-3.343157 -2.301239,-6.117665 -5.324204,-6.65507 0.928778,-2.6120368 2.389976,-4.9741178 4.277111,-6.917523 0.106484,-0.099982 0.236631,-0.1624712 0.372694,-0.1937157 2.200671,-0.7186225 4.537406,-0.8311025 6.791319,-0.3249423 7.057528,1.5684718 11.748744,8.635968 10.748977,16.172132 -0.496926,3.911806 -2.283492,7.0425 -5.188142,9.460821 -2.963807,2.48081 -6.359466,3.393148 -10.068662,3.261922 l -1.419787,-0.06249 c 0.733557,0.174969 1.478945,0.306196 2.224334,0.39368 2.407723,0.262453 4.815447,0.131227 7.104855,-0.781111 C 27.85742,28.880969 31.128848,24.70671 31.933395,18.44532 32.217352,15.158403 31.590279,11.858989 30.111334,8.9470047 25.946623,0.70471675 16.256571,-2.4009823 8.459569,1.9982374 8.31759,2.0857219 8.193359,2.191953 8.086875,2.3231797 Z m 9.264115,24.7893533 c -0.124231,0.718622 -0.248463,1.368507 -0.863704,1.955903 3.147196,-0.06249 7.288244,-1.824676 9.571736,-6.067674 2.348566,-4.367975 2.224335,-8.742199 -0.372694,-12.985196 -2.159261,-3.4556378 -5.312373,-5.1490874 -9.264116,-5.4115409 0.08874,0.1437245 0.189305,0.2749513 0.307621,0.3936802 l 0.307621,0.3936802 c 1.484861,1.955903 2.224334,4.2429973 2.531955,6.7175585 0.124231,0.981076 -0.05916,1.893414 -0.804547,2.612037 -0.248463,0.193716 -0.30762,0.39368 -0.248463,0.649885 l 0.431853,1.106053 1.733324,3.393149 c 0.307621,0.718622 0.248463,1.23728 -0.372694,1.762187 -0.189305,0.156222 -0.396358,0.287449 -0.615242,0.39368 l -1.112167,0.524907 0.183389,0.849849 c 0.18339,0.39368 0.05916,0.781112 -0.183389,1.106054 -0.147895,0.149973 -0.2248,0.368685 -0.183389,0.587396 0.124231,0.718622 -0.124232,1.23728 -0.739473,1.568472 -0.124231,0.06249 -0.248463,0.324942 -0.307621,0.456169 z M 9.453421,26.918817 c 0.987935,0.718623 2.040945,1.306018 3.147196,1.630961 1.419788,0.324942 2.472797,-0.39368 2.656186,-1.893414 0.05916,-0.524907 0.307621,-0.912338 0.739473,-1.106054 0.431852,-0.262454 0.496926,-0.456169 0.124232,-0.849849 L 15.564424,24.175554 16.368971,23.9131 c 0.372694,-0.131226 0.431852,-0.324942 0.30762,-0.718622 -0.08282,-0.187467 -0.141979,-0.387431 -0.183389,-0.587396 -0.183389,-0.912338 -0.124231,-0.981076 0.680315,-1.174792 0.496926,-0.193715 0.928778,-0.39368 1.295556,-0.781111 0.18339,-0.131227 0.18339,-0.262453 0.05916,-0.524907 l -0.987935,-1.893414 c -0.05916,-0.118729 -0.124232,-0.237458 -0.18339,-0.356187 -0.37861,-0.73112 -0.769051,-1.474738 -0.928778,-2.318339 -0.124231,-0.587395 -0.05916,-1.106053 0.496926,-1.499734 0.307621,-0.262453 0.496926,-0.587395 0.496926,-1.043564 -0.02367,-0.631139 -0.08874,-1.268525 -0.183391,-1.893415 C 16.865896,8.7720358 15.877961,6.8161327 14.20971,5.185172 13.902089,4.9227186 13.653626,4.7914919 13.221774,4.9227186 l -2.106018,0.7936092 c 0.118315,0.074987 0.236631,0.1499734 0.354947,0.2249601 v 0 c 0.372694,0.231209 0.721725,0.4561691 1.005683,0.7561159 1.792482,1.6309607 2.472797,3.8493172 2.715344,6.2613892 0.05916,0.524907 0,1.043565 -0.431852,1.368508 -0.496926,0.324942 -0.615242,0.781111 -0.431852,1.306018 0.289873,0.824854 0.615241,1.624712 0.987935,2.412072 l 0.987936,1.824677 c -0.372694,0.524906 -0.804546,0.718622 -1.295556,0.912338 -0.739473,0.193715 -0.863705,0.456169 -0.615242,1.306018 0.0355,0.09373 0.08282,0.174969 0.124232,0.262453 0.124231,0.324943 0.05916,0.524907 -0.248463,0.649885 l -0.739473,0.193716 0.307621,0.262453 0.248462,0.262454 c 0.248463,0.324942 0.248463,0.524907 -0.124231,0.649884 -0.431852,0.262454 -0.680315,0.587396 -0.680315,1.106054 0,0.781112 -0.431852,1.237281 -1.112167,1.499734 -0.2248,0.06249 -0.4496,0.09373 -0.680315,0.06249 L 9.447505,26.906319 Z"
     id="path1"
     style="stroke-width:0.0608006;fill:#ffffff;fill-opacity:1" />
</svg>
