<?xml version="1.0" encoding="UTF-8" standalone="no"?>
<svg
   viewBox="0 0 32 32"
   version="1.1"
   id="svg1"
   sodipodi:docname="random.svg"
   width="32"
   height="32"
   inkscape:version="1.3 (0e150ed6c4, 2023-07-21)"
   xmlns:inkscape="http://www.inkscape.org/namespaces/inkscape"
   xmlns:sodipodi="http://sodipodi.sourceforge.net/DTD/sodipodi-0.dtd"
   xmlns="http://www.w3.org/2000/svg"
   xmlns:svg="http://www.w3.org/2000/svg">
  <defs
     id="defs1" />
  <sodipodi:namedview
     id="namedview1"
     pagecolor="#ffffff"
     bordercolor="#000000"
     borderopacity="0.25"
     inkscape:showpageshadow="2"
     inkscape:pageopacity="0.0"
     inkscape:pagecheckerboard="0"
     inkscape:deskcolor="#d1d1d1"
     inkscape:zoom="0.66567474"
     inkscape:cx="49.57376"
     inkscape:cy="994.47967"
     inkscape:window-width="3836"
     inkscape:window-height="2128"
     inkscape:window-x="0"
     inkscape:window-y="28"
     inkscape:window-maximized="1"
     inkscape:current-layer="svg1" />
  <!--! Font Awesome Pro 6.4.2 by @fontawesome - https://fontawesome.com License - https://fontawesome.com/license (Commercial License) Copyright 2023 Fonticons, Inc. -->
  <path
     d="m 25.232572,0.17535252 c 0.749853,-0.357036 1.605936,-0.157096 2.180824,0.49271 L 31.412615,5.2381305 C 31.787541,5.6665745 32,6.2449735 32,6.8519355 c 0,0.606962 -0.212459,1.185361 -0.587385,1.613805 l -3.999219,4.5700675 c -0.574888,0.656947 -1.430971,0.849747 -2.180824,0.49271 -0.749854,-0.357036 -1.237259,-1.185361 -1.237259,-2.113656 V 9.1441095 h -1.999609 c -0.631127,0 -1.224761,0.335614 -1.599688,0.9140145 l -2.649482,4.034512 -2.499512,-3.806009 1.949619,-2.9705445 c 1.131029,-1.728057 2.911932,-2.74204 4.799063,-2.74204 h 1.999609 v -2.285034 c 0,-0.921154 0.487405,-1.75661898 1.237259,-2.11365598 z M 10.247998,17.905786 l 2.499512,3.806009 -1.949619,2.970544 c -1.1310291,1.728056 -2.9119312,2.74204 -4.7990626,2.74204 H 1.9996095 C 0.89357547,27.424379 0,26.403255 0,25.139346 0,23.875436 0.89357547,22.854312 1.9996095,22.854312 h 3.9992189 c 0.6311267,0 1.2247607,-0.335614 1.5996875,-0.914014 z m 17.159149,13.424573 c -0.574888,0.656947 -1.43097,0.849746 -2.180824,0.49271 -0.749854,-0.357037 -1.237258,-1.185361 -1.237258,-2.113656 v -2.285034 h -1.993361 c -1.887131,0 -3.668034,-1.013984 -4.799063,-2.74204 L 7.5985159,10.058124 C 7.2235891,9.4797235 6.6299551,9.1441095 5.9988284,9.1441095 H 1.9996095 C 0.89357547,9.1441095 0,8.1229855 0,6.8590755 0,5.5951665 0.89357547,4.5740425 1.9996095,4.5740425 h 3.9992189 c 1.8871314,0 3.6680335,1.013983 4.7990626,2.74204 l 9.598125,14.6242155 c 0.374927,0.5784 0.968561,0.914014 1.599688,0.914014 h 1.999609 v -2.285034 c 0,-0.921154 0.487405,-1.756619 1.237259,-2.113656 0.749853,-0.357036 1.605936,-0.157096 2.180824,0.492711 L 31.412615,23.5184 C 31.787541,23.946844 32,24.525243 32,25.132205 c 0,0.606962 -0.212459,1.185361 -0.587385,1.613805 l -3.999219,4.570067 z"
     id="path1"
     style="stroke-width:0.0667989;fill:#ffffff;fill-opacity:1" />
</svg>
