<?xml version="1.0" encoding="UTF-8" standalone="no"?>
<svg
   viewBox="0 0 32 32"
   version="1.1"
   id="svg1"
   sodipodi:docname="image-solid.svg"
   inkscape:version="1.3 (0e150ed6c4, 2023-07-21)"
   width="32"
   height="32"
   xmlns:inkscape="http://www.inkscape.org/namespaces/inkscape"
   xmlns:sodipodi="http://sodipodi.sourceforge.net/DTD/sodipodi-0.dtd"
   xmlns="http://www.w3.org/2000/svg"
   xmlns:svg="http://www.w3.org/2000/svg">
  <defs
     id="defs1" />
  <sodipodi:namedview
     id="namedview1"
     pagecolor="#ffffff"
     bordercolor="#000000"
     borderopacity="0.25"
     inkscape:showpageshadow="2"
     inkscape:pageopacity="0.0"
     inkscape:pagecheckerboard="true"
     inkscape:deskcolor="#d1d1d1"
     inkscape:zoom="15.109375"
     inkscape:cx="23.892451"
     inkscape:cy="54.932782"
     inkscape:window-width="3836"
     inkscape:window-height="2134"
     inkscape:window-x="0"
     inkscape:window-y="22"
     inkscape:window-maximized="1"
     inkscape:current-layer="svg1" />
  <!--! Font Awesome Pro 6.4.2 by @fontawesome - https://fontawesome.com License - https://fontawesome.com/license (Commercial License) Copyright 2023 Fonticons, Inc. -->
  <path
     d="M 0,4.571429 C 0,2.05 1.79375,0 4,0 h 24 c 2.20625,0 4,2.05 4,4.571429 V 27.428571 C 32,29.95 30.20625,32 28,32 H 4 C 1.79375,32 0,29.95 0,27.428571 Z m 20.2375,7.607142 c -0.28125,-0.471428 -0.74375,-0.75 -1.2375,-0.75 -0.49375,0 -0.9625,0.278572 -1.2375,0.75 L 12.325,21.292857 10.66875,18.928571 C 10.38125,18.521429 9.95,18.285714 9.5,18.285714 c -0.45,0 -0.8875,0.235715 -1.16875,0.642857 l -4,5.714286 C 3.96875,25.157143 3.9,25.864286 4.15,26.457143 4.4,27.05 4.925,27.428571 5.5,27.428571 h 6 2 13 c 0.55625,0 1.06875,-0.35 1.325,-0.914285 C 28.08125,25.95 28.05,25.271429 27.7375,24.75 Z M 7,11.428571 a 3,3.4285714 0 1 0 0,-6.857142 3,3.4285714 0 1 0 0,6.857142 z"
     id="path1"
     style="fill:#ffffff;fill-opacity:1;stroke-width:0.0668153" />
</svg>
